<?xml version="1.0"?>
<svg
  xmlns="http://www.w3.org/2000/svg"
  xmlns:xlink="http://www.w3.org/1999/xlink" version="1.1"
  preserveAspectRatio="xMinYMin meet"
  viewBox="90 90 20 20"
  width="100%" height="100%"
>
  <g stroke="#000000" stroke-width="0.1%" fill="none" transform="matrix(1,0,0,-1,0,0)">
    <g stroke="rgb(0, 0, 0)"><path d="M92,-110L108,-110" /></g>
<g stroke="rgb(0, 0, 0)"><path d="M 108 -110 A 2 2 0 0 1 110 -108" /></g>
<g stroke="rgb(0, 0, 0)"><path d="M110,-108L110,-92" /></g>
<g stroke="rgb(0, 0, 0)"><path d="M 110 -92 A 2 2 0 0 1 108 -90" /></g>
<g stroke="rgb(0, 0, 0)"><path d="M108,-90L92,-90" /></g>
<g stroke="rgb(0, 0, 0)"><path d="M 92 -90 A 2 2 0 0 1 90 -92" /></g>
<g stroke="rgb(0, 0, 0)"><path d="M90,-92L90,-108" /></g>
<g stroke="rgb(0, 0, 0)"><path d="M 90 -108 A 2 2 0 0 1 92 -110" /></g>
  </g>
</svg>